<?xml version="1.0" encoding="UTF-8" standalone="no"?>
<!-- Created with Inkscape (http://www.inkscape.org/) -->

<svg
   width="56.645638mm"
   height="56.645641mm"
   viewBox="0 0 56.645638 56.645641"
   version="1.1"
   id="svg1"
   xml:space="preserve"
   sodipodi:docname="app.svg"
   inkscape:version="1.3.2 (091e20ef0f, 2023-11-25, custom)"
   xmlns:inkscape="http://www.inkscape.org/namespaces/inkscape"
   xmlns:sodipodi="http://sodipodi.sourceforge.net/DTD/sodipodi-0.dtd"
   xmlns="http://www.w3.org/2000/svg"
   xmlns:svg="http://www.w3.org/2000/svg"><sodipodi:namedview
     id="namedview1"
     pagecolor="#ffffff"
     bordercolor="#666666"
     borderopacity="1.0"
     inkscape:showpageshadow="2"
     inkscape:pageopacity="0.0"
     inkscape:pagecheckerboard="0"
     inkscape:deskcolor="#d1d1d1"
     inkscape:document-units="mm"
     inkscape:zoom="1.4400158"
     inkscape:cx="-178.81748"
     inkscape:cy="329.51027"
     inkscape:window-width="2560"
     inkscape:window-height="1356"
     inkscape:window-x="0"
     inkscape:window-y="0"
     inkscape:window-maximized="1"
     inkscape:current-layer="layer1" /><defs
     id="defs1" /><g
     inkscape:label="Layer 1"
     inkscape:groupmode="layer"
     id="layer1"
     transform="translate(-65.480241,-59.243929)"><path
       id="path1"
       style="fill:#ffffff;stroke-width:0.264583"
       d="M 93.80306,59.243929 A 28.322836,28.322836 0 0 0 65.480241,87.566748 28.322836,28.322836 0 0 0 93.80306,115.88957 28.322836,28.322836 0 0 0 122.12588,87.566748 28.322836,28.322836 0 0 0 93.80306,59.243929 Z M 90.322652,83.452787 A 15.466039,15.466039 0 0 1 105.78889,98.91851 15.466039,15.466039 0 0 1 90.322652,114.38475 15.466039,15.466039 0 0 1 74.85693,98.91851 15.466039,15.466039 0 0 1 90.322652,83.452787 Z" /></g></svg>
